<?xml version="1.0" encoding="utf-8"?>
<svg width="940px" height="300px" viewBox="0 0 940 300" version="1.1" xmlns:xlink="http://www.w3.org/1999/xlink" xmlns="http://www.w3.org/2000/svg">
  <desc>Created with Lunacy</desc>
  <defs>
    <path d="M4 0L936 0Q936.205 0 936.407 0.0186425Q936.609 0.037285 936.806 0.0744179Q937.003 0.111551 937.193 0.166871Q937.384 0.222192 937.567 0.295249Q937.749 0.368306 937.923 0.458503Q938.096 0.5487 938.258 0.655303Q938.42 0.761905 938.57 0.884043Q938.721 1.00618 938.857 1.14286Q938.994 1.27953 939.116 1.42964Q939.238 1.57974 939.345 1.74204Q939.451 1.90434 939.542 2.07752Q939.632 2.2507 939.705 2.43334Q939.778 2.61598 939.833 2.8066Q939.889 2.99721 939.926 3.19425Q939.963 3.39129 939.981 3.59314Q940 3.79499 940 4L940 296Q940 296.205 939.981 296.407Q939.963 296.609 939.926 296.806Q939.889 297.003 939.833 297.193Q939.778 297.384 939.705 297.567Q939.632 297.749 939.542 297.922Q939.451 298.096 939.345 298.258Q939.238 298.42 939.116 298.57Q938.994 298.72 938.857 298.857Q938.721 298.994 938.57 299.116Q938.42 299.238 938.258 299.345Q938.096 299.451 937.923 299.542Q937.749 299.632 937.567 299.705Q937.384 299.778 937.193 299.833Q937.003 299.888 936.806 299.926Q936.609 299.963 936.407 299.981Q936.205 300 936 300L4 300Q3.79499 300 3.59314 299.981Q3.39129 299.963 3.19425 299.926Q2.99721 299.888 2.8066 299.833Q2.61598 299.778 2.43334 299.705Q2.2507 299.632 2.07752 299.542Q1.90434 299.451 1.74204 299.345Q1.57974 299.238 1.42964 299.116Q1.27953 298.994 1.14286 298.857Q1.00618 298.72 0.884043 298.57Q0.761905 298.42 0.655303 298.258Q0.5487 298.096 0.458503 297.922Q0.368306 297.749 0.295249 297.567Q0.222192 297.384 0.166871 297.193Q0.111551 297.003 0.0744179 296.806Q0.037285 296.609 0.0186425 296.407Q0 296.205 0 296L0 4Q0 3.79499 0.0186425 3.59314Q0.037285 3.39129 0.0744179 3.19425Q0.111551 2.99721 0.166871 2.8066Q0.222192 2.61598 0.295249 2.43334Q0.368306 2.2507 0.458503 2.07752Q0.5487 1.90434 0.655303 1.74204Q0.761905 1.57974 0.884043 1.42964Q1.00618 1.27953 1.14286 1.14286Q1.27953 1.00618 1.42964 0.884043Q1.57974 0.761905 1.74204 0.655303Q1.90434 0.5487 2.07752 0.458503Q2.2507 0.368306 2.43334 0.295249Q2.61598 0.222192 2.8066 0.166871Q2.99721 0.111551 3.19425 0.0744179Q3.39129 0.037285 3.59314 0.0186425Q3.79499 0 4 0Z" id="path_1" />
    <clipPath id="mask_1">
      <use xlink:href="#path_1" />
    </clipPath>
  </defs>
  <g id="Bitmap">
    <path d="M4 0L936 0Q936.205 0 936.407 0.0186425Q936.609 0.037285 936.806 0.0744179Q937.003 0.111551 937.193 0.166871Q937.384 0.222192 937.567 0.295249Q937.749 0.368306 937.923 0.458503Q938.096 0.5487 938.258 0.655303Q938.42 0.761905 938.57 0.884043Q938.721 1.00618 938.857 1.14286Q938.994 1.27953 939.116 1.42964Q939.238 1.57974 939.345 1.74204Q939.451 1.90434 939.542 2.07752Q939.632 2.2507 939.705 2.43334Q939.778 2.61598 939.833 2.8066Q939.889 2.99721 939.926 3.19425Q939.963 3.39129 939.981 3.59314Q940 3.79499 940 4L940 296Q940 296.205 939.981 296.407Q939.963 296.609 939.926 296.806Q939.889 297.003 939.833 297.193Q939.778 297.384 939.705 297.567Q939.632 297.749 939.542 297.922Q939.451 298.096 939.345 298.258Q939.238 298.42 939.116 298.57Q938.994 298.72 938.857 298.857Q938.721 298.994 938.57 299.116Q938.42 299.238 938.258 299.345Q938.096 299.451 937.923 299.542Q937.749 299.632 937.567 299.705Q937.384 299.778 937.193 299.833Q937.003 299.888 936.806 299.926Q936.609 299.963 936.407 299.981Q936.205 300 936 300L4 300Q3.79499 300 3.59314 299.981Q3.39129 299.963 3.19425 299.926Q2.99721 299.888 2.8066 299.833Q2.61598 299.778 2.43334 299.705Q2.2507 299.632 2.07752 299.542Q1.90434 299.451 1.74204 299.345Q1.57974 299.238 1.42964 299.116Q1.27953 298.994 1.14286 298.857Q1.00618 298.72 0.884043 298.57Q0.761905 298.42 0.655303 298.258Q0.5487 298.096 0.458503 297.922Q0.368306 297.749 0.295249 297.567Q0.222192 297.384 0.166871 297.193Q0.111551 297.003 0.0744179 296.806Q0.037285 296.609 0.0186425 296.407Q0 296.205 0 296L0 4Q0 3.79499 0.0186425 3.59314Q0.037285 3.39129 0.0744179 3.19425Q0.111551 2.99721 0.166871 2.8066Q0.222192 2.61598 0.295249 2.43334Q0.368306 2.2507 0.458503 2.07752Q0.5487 1.90434 0.655303 1.74204Q0.761905 1.57974 0.884043 1.42964Q1.00618 1.27953 1.14286 1.14286Q1.27953 1.00618 1.42964 0.884043Q1.57974 0.761905 1.74204 0.655303Q1.90434 0.5487 2.07752 0.458503Q2.2507 0.368306 2.43334 0.295249Q2.61598 0.222192 2.8066 0.166871Q2.99721 0.111551 3.19425 0.0744179Q3.39129 0.037285 3.59314 0.0186425Q3.79499 0 4 0Z" id="Mask" fill="#000000" fill-opacity="0.4" stroke="none" />
  </g>
  <g id="Group-2" transform="translate(379 106)">
    <g id="" fill="#FFFFFF" fill-opacity="0.3" transform="translate(64 0)">
      <path d="M4.37695 54.9053L4.37695 18.0439L30.4805 18.0439L30.4805 54.9053L4.37695 54.9053ZM8.2793 51.0029L26.5781 51.0029L26.5781 21.9463L8.2793 21.9463L8.2793 51.0029Z" />
    </g>
    <g id="Selecionar-imagem" fill="#FFFFFF" fill-opacity="0.3" transform="translate(0 64)">
      <path d="M24.3066 20.502L22.7051 20.502L22.7051 5.69727L24.3066 5.69727L24.3066 20.502ZM47.334 7.66992Q47.6367 7.96289 48.0664 7.96289Q48.5059 7.96289 48.8135 7.66016Q49.1211 7.35742 49.1211 6.92773Q49.1211 6.47852 48.8135 6.18066Q48.5059 5.88281 48.0664 5.88281Q47.6367 5.88281 47.334 6.18066Q47.0313 6.47852 47.0313 6.92773Q47.0313 7.37695 47.334 7.66992ZM98.5547 7.96289Q98.125 7.96289 97.8223 7.66992Q97.5195 7.37695 97.5195 6.92773Q97.5195 6.47852 97.8223 6.18066Q98.125 5.88281 98.5547 5.88281Q98.9941 5.88281 99.3018 6.18066Q99.6094 6.47852 99.6094 6.92773Q99.6094 7.35742 99.3018 7.66016Q98.9941 7.96289 98.5547 7.96289ZM1.18164 18.002L1.18164 19.9355Q1.45508 20.1211 1.90918 20.2725Q2.36328 20.4238 2.87109 20.5264Q3.37891 20.6289 3.86719 20.6826Q4.35547 20.7363 4.6875 20.7363Q5.68359 20.7363 6.58203 20.5361Q7.48047 20.3359 8.16895 19.8867Q8.85742 19.4375 9.2627 18.7197Q9.66797 18.002 9.66797 16.9668Q9.66797 16.1855 9.37012 15.5801Q9.07226 14.9746 8.56445 14.4766Q8.05664 13.9785 7.38281 13.5684Q6.70898 13.1582 5.95703 12.7871Q5.22461 12.4258 4.66309 12.123Q4.10156 11.8203 3.71094 11.498Q3.32031 11.1758 3.12012 10.7852Q2.91992 10.3945 2.91992 9.85742Q2.91992 9.28125 3.18359 8.88086Q3.44727 8.48047 3.86719 8.22656Q4.28711 7.97266 4.82422 7.86035Q5.36133 7.74805 5.89844 7.74805Q7.8418 7.74805 9.08203 8.60742L9.08203 6.76172Q8.13477 6.26367 6.06445 6.26367Q5.15625 6.26367 4.28223 6.48828Q3.4082 6.71289 2.72461 7.17188Q2.04102 7.63086 1.62109 8.33887Q1.20117 9.04688 1.20117 10.0039Q1.20117 10.7852 1.46973 11.3662Q1.73828 11.9473 2.20703 12.4063Q2.67578 12.8652 3.31055 13.2461Q3.94531 13.627 4.67773 13.998Q5.37109 14.3496 5.97168 14.667Q6.57227 14.9844 7.01172 15.3311Q7.45117 15.6777 7.7002 16.0977Q7.94922 16.5176 7.94922 17.084Q7.94922 18.1387 7.20215 18.7002Q6.45508 19.2617 4.94141 19.2617Q4.50195 19.2617 3.98438 19.1738Q3.4668 19.0859 2.9541 18.9248Q2.44141 18.7637 1.97754 18.5293Q1.51367 18.2949 1.18164 18.002ZM13.2227 15.9023L20.2832 15.9023L20.2832 15.0625Q20.2832 12.8066 19.209 11.5371Q18.1348 10.2676 16.1719 10.2676Q14.209 10.2676 12.8857 11.7373Q11.5625 13.207 11.5625 15.541Q11.5625 18.0117 12.7734 19.374Q13.9844 20.7363 16.1035 20.7363Q18.2715 20.7363 19.5898 19.7793L19.5898 18.2754Q18.1738 19.3887 16.4844 19.3887Q14.9805 19.3887 14.1211 18.4805Q13.2617 17.5723 13.2227 15.9023ZM28.5254 15.9023L35.5859 15.9023L35.5859 15.0625Q35.5859 12.8066 34.5117 11.5371Q33.4375 10.2676 31.4746 10.2676Q29.5117 10.2676 28.1885 11.7373Q26.8652 13.207 26.8652 15.541Q26.8652 18.0117 28.0762 19.374Q29.2871 20.7363 31.4063 20.7363Q33.5742 20.7363 34.8926 19.7793L34.8926 18.2754Q33.4766 19.3887 31.7871 19.3887Q30.2832 19.3887 29.4238 18.4805Q28.5645 17.5723 28.5254 15.9023ZM44.8242 20.043Q43.6719 20.7363 42.0898 20.7363Q39.9512 20.7363 38.6377 19.3447Q37.3242 17.9531 37.3242 15.7363Q37.3242 13.2656 38.7402 11.7666Q40.1563 10.2676 42.5195 10.2676Q43.8379 10.2676 44.8438 10.7559L44.8438 12.3965Q43.7305 11.6152 42.4609 11.6152Q40.9277 11.6152 39.9463 12.7139Q38.9648 13.8125 38.9648 15.5996Q38.9648 17.3574 39.8877 18.373Q40.8105 19.3887 42.3633 19.3887Q43.6719 19.3887 44.8242 18.5195L44.8242 20.043ZM56.2695 20.7363Q54.0527 20.7363 52.7295 19.335Q51.4063 17.9336 51.4063 15.6191Q51.4063 13.0996 52.7832 11.6836Q54.1602 10.2676 56.5039 10.2676Q58.7402 10.2676 59.9951 11.6445Q61.25 13.0215 61.25 15.4629Q61.25 17.8555 59.8975 19.2959Q58.5449 20.7363 56.2695 20.7363ZM70.5078 20.502L72.1094 20.502L72.1094 14.3887Q72.1094 12.3867 71.2402 11.3271Q70.3711 10.2676 68.7305 10.2676Q66.582 10.2676 65.4492 12.1621L65.4102 12.1621L65.4102 10.502L63.8086 10.502L63.8086 20.502L65.4102 20.502L65.4102 14.7988Q65.4102 13.4219 66.1963 12.5186Q66.9824 11.6152 68.1836 11.6152Q70.5078 11.6152 70.5078 14.7988L70.5078 20.502ZM82.2852 20.502L80.6836 20.502L80.6836 18.9395L80.6445 18.9395Q79.5996 20.7363 77.5684 20.7363Q76.0742 20.7363 75.2295 19.9453Q74.3848 19.1543 74.3848 17.8457Q74.3848 15.043 77.6855 14.584L80.6836 14.1641Q80.6836 11.6152 78.623 11.6152Q76.8164 11.6152 75.3613 12.8457L75.3613 11.2051Q76.8359 10.2676 78.7598 10.2676Q82.2852 10.2676 82.2852 13.998L82.2852 20.502ZM115.176 20.502L116.777 20.502L116.777 14.3398Q116.777 10.2676 113.477 10.2676Q111.27 10.2676 110.156 12.3379Q109.873 11.4102 109.111 10.8389Q108.35 10.2676 107.324 10.2676Q105.283 10.2676 104.219 12.084L104.18 12.084L104.18 10.502L102.578 10.502L102.578 20.502L104.18 20.502L104.18 14.7988Q104.18 13.3828 104.863 12.499Q105.547 11.6152 106.602 11.6152Q108.877 11.6152 108.877 14.5645L108.877 20.502L110.479 20.502L110.479 14.7988Q110.479 13.4902 111.196 12.5527Q111.914 11.6152 112.939 11.6152Q114.15 11.6152 114.663 12.3574Q115.176 13.0996 115.176 14.7598L115.176 20.502ZM126.963 20.502L125.361 20.502L125.361 18.9395L125.322 18.9395Q124.277 20.7363 122.246 20.7363Q120.752 20.7363 119.907 19.9453Q119.063 19.1543 119.063 17.8457Q119.063 15.043 122.363 14.584L125.361 14.1641Q125.361 11.6152 123.301 11.6152Q121.494 11.6152 120.039 12.8457L120.039 11.2051Q121.514 10.2676 123.438 10.2676Q126.963 10.2676 126.963 13.998L126.963 20.502ZM133.242 25.209Q138.516 25.209 138.516 19.7012L138.516 10.502L136.914 10.502L136.914 11.8887L136.875 11.8887Q135.898 10.2676 133.877 10.2676Q131.748 10.2676 130.522 11.7715Q129.297 13.2754 129.297 15.8242Q129.297 18.0703 130.435 19.4033Q131.572 20.7363 133.438 20.7363Q135.732 20.7363 136.875 18.8223L136.914 18.8223L136.914 19.916Q136.914 23.8418 133.223 23.8418Q131.689 23.8418 130 22.9043L130 24.5059Q131.387 25.209 133.242 25.209ZM149.795 15.9023L142.734 15.9023Q142.773 17.5723 143.633 18.4805Q144.492 19.3887 145.996 19.3887Q147.686 19.3887 149.102 18.2754L149.102 19.7793Q147.783 20.7363 145.615 20.7363Q143.496 20.7363 142.285 19.374Q141.074 18.0117 141.074 15.541Q141.074 13.207 142.397 11.7373Q143.721 10.2676 145.684 10.2676Q147.646 10.2676 148.721 11.5371Q149.795 12.8066 149.795 15.0625L149.795 15.9023ZM164.814 20.502L166.416 20.502L166.416 14.3398Q166.416 10.2676 163.115 10.2676Q160.908 10.2676 159.795 12.3379Q159.512 11.4102 158.75 10.8389Q157.988 10.2676 156.963 10.2676Q154.922 10.2676 153.857 12.084L153.818 12.084L153.818 10.502L152.217 10.502L152.217 20.502L153.818 20.502L153.818 14.7988Q153.818 13.3828 154.502 12.499Q155.186 11.6152 156.24 11.6152Q158.516 11.6152 158.516 14.5645L158.516 20.502L160.117 20.502L160.117 14.7988Q160.117 13.4902 160.835 12.5527Q161.553 11.6152 162.578 11.6152Q163.789 11.6152 164.302 12.3574Q164.814 13.0996 164.814 14.7598L164.814 20.502ZM89.3066 11.8008Q90.0977 11.8008 90.5176 12.123L90.5176 10.4629Q90.1855 10.3262 89.5605 10.3262Q88.6914 10.3262 87.9883 10.917Q87.2852 11.5078 86.9434 12.5625L86.9043 12.5625L86.9043 10.502L85.3027 10.502L85.3027 20.502L86.9043 20.502L86.9043 15.4043Q86.9043 13.7344 87.5928 12.7676Q88.2813 11.8008 89.3066 11.8008ZM47.2461 20.502L48.8477 20.502L48.8477 10.502L47.2461 10.502L47.2461 20.502ZM99.3359 20.502L97.7344 20.502L97.7344 10.502L99.3359 10.502L99.3359 20.502ZM17.9736 12.3867Q18.6328 13.1582 18.6426 14.5449L13.2422 14.5449Q13.4277 13.2363 14.2188 12.4258Q15.0098 11.6152 16.1426 11.6152Q17.3145 11.6152 17.9736 12.3867ZM33.2764 12.3867Q33.9355 13.1582 33.9453 14.5449L28.5449 14.5449Q28.7305 13.2363 29.5215 12.4258Q30.3125 11.6152 31.4453 11.6152Q32.6172 11.6152 33.2764 12.3867ZM56.3867 11.6152Q54.8438 11.6152 53.9453 12.665Q53.0469 13.7148 53.0469 15.5605Q53.0469 17.3379 53.9551 18.3633Q54.8633 19.3887 56.3867 19.3887Q57.9395 19.3887 58.7744 18.3828Q59.6094 17.377 59.6094 15.5215Q59.6094 13.6465 58.7744 12.6309Q57.9395 11.6152 56.3867 11.6152ZM136.914 14.5059L136.914 15.9805Q136.914 17.4746 136.069 18.4316Q135.225 19.3887 133.877 19.3887Q132.549 19.3887 131.743 18.3877Q130.938 17.3867 130.938 15.7168Q130.938 13.7734 131.777 12.6943Q132.617 11.6152 134.102 11.6152Q135.303 11.6152 136.108 12.4648Q136.914 13.3145 136.914 14.5059ZM148.154 14.5449Q148.145 13.1582 147.485 12.3867Q146.826 11.6152 145.654 11.6152Q144.521 11.6152 143.73 12.4258Q142.939 13.2363 142.754 14.5449L148.154 14.5449ZM80.6836 15.4434L78.2715 15.7754Q77.1582 15.9316 76.5918 16.3271Q76.0254 16.7227 76.0254 17.7285Q76.0254 18.4609 76.5479 18.9248Q77.0703 19.3887 77.9395 19.3887Q79.1309 19.3887 79.9072 18.5537Q80.6836 17.7188 80.6836 16.4395L80.6836 15.4434ZM125.361 15.4434L122.949 15.7754Q121.836 15.9316 121.27 16.3271Q120.703 16.7227 120.703 17.7285Q120.703 18.4609 121.226 18.9248Q121.748 19.3887 122.617 19.3887Q123.809 19.3887 124.585 18.5537Q125.361 17.7188 125.361 16.4395L125.361 15.4434Z" />
    </g>
  </g>
</svg>